<?xml version="1.0" ?><!DOCTYPE svg  PUBLIC '-//W3C//DTD SVG 1.0//EN'  'http://www.w3.org/TR/2001/REC-SVG-20010904/DTD/svg10.dtd'><svg enable-background="new 0 0 32 32" height="32px" id="Layer_1" version="1.0" viewBox="0 0 32 32" width="32px" xml:space="preserve" xmlns="http://www.w3.org/2000/svg" xmlns:xlink="http://www.w3.org/1999/xlink"><path d="M6.01,25v-2l3.641,2.328l5.859-5.125V31L6.01,25z M0.461,18.982L6.01,14l8.975,5.754L9.65,24.382  L0.461,18.982z M6.01,13l-6-4.621L9.01,3l6.5,4.5L6.01,13z M26.01,25l-9.5,6V20.203l5.853,5.062L26.01,23V25z M22.362,24.382  l-5.335-4.628L26.01,14l5.54,4.982L22.362,24.382z M26.01,13l-9.5-5.5l6.5-4.5L32,8.38L26.01,13z" fill="#4C96D1"/><g/><g/><g/><g/><g/><g/></svg>