<?xml version="1.0" encoding="utf-8"?>
<!-- Generator: Adobe Illustrator 17.0.0, SVG Export Plug-In . SVG Version: 6.00 Build 0)  -->
<!DOCTYPE svg PUBLIC "-//W3C//DTD SVG 1.1//EN" "http://www.w3.org/Graphics/SVG/1.1/DTD/svg11.dtd">
<svg version="1.1"
	 id="svg2" xmlns:cc="http://creativecommons.org/ns#" xmlns:svg="http://www.w3.org/2000/svg" xmlns:dc="http://purl.org/dc/elements/1.1/" xmlns:rdf="http://www.w3.org/1999/02/22-rdf-syntax-ns#"
	 xmlns="http://www.w3.org/2000/svg" xmlns:xlink="http://www.w3.org/1999/xlink" x="0px" y="0px" width="126.658px"
	 height="126.658px" viewBox="20.75 -29.5 126.658 126.658" enable-background="new 20.75 -29.5 126.658 126.658"
	 xml:space="preserve">
<path d="M147.408,71.826c0,13.99-11.341,25.332-25.332,25.332H46.082c-13.99,0-25.332-11.341-25.332-25.332V-4.168
	c0-13.99,11.341-25.332,25.332-25.332h75.995c13.99,0,25.332,11.341,25.332,25.332V71.826z"/>
<g id="g3797">
	<path id="path3001" fill="#FFFFFF" d="M94.795,69.925c0,5.217-0.868,9.076-2.604,11.575c-1.736,2.5-4.407,3.75-8.012,3.75
		c-3.65,0-6.365-1.261-8.146-3.782c-1.781-2.522-2.671-6.369-2.671-11.543V27.601c0-5.174,0.879-9.01,2.637-11.51
		c1.758-2.5,4.485-3.75,8.179-3.75c3.605,0,6.276,1.25,8.012,3.75c1.736,2.5,2.604,6.337,2.604,11.51V69.925z"/>
	<path id="path3001-4" fill="#89C623" d="M71.694-5.397c0-3.348,1.224-6.217,3.672-8.608c2.448-2.391,5.386-3.587,8.813-3.587
		c3.383,0,6.276,1.196,8.68,3.587c2.404,2.391,3.605,5.261,3.605,8.608c0,3.391-1.191,6.261-3.572,8.608
		c-2.381,2.348-5.286,3.522-8.713,3.522c-3.516,0-6.476-1.174-8.88-3.522C72.895,0.863,71.694-2.006,71.694-5.397z"/>
</g>
</svg>
