<?xml version="1.0" encoding="utf-8"?><!-- Generator: Adobe Illustrator 16.0.0, SVG Export Plug-In . SVG Version: 6.00 Build 0) --><!DOCTYPE svg PUBLIC "-//W3C//DTD SVG 1.1//EN" "http://www.w3.org/Graphics/SVG/1.1/DTD/svg11.dtd"><svg version="1.1" id="Layer_1" xmlns="http://www.w3.org/2000/svg" xmlns:xlink="http://www.w3.org/1999/xlink" x="0px" y="0px" width="46.546px" height="46.452px" viewBox="7.727 7.821 46.546 46.452" enable-background="new 7.727 7.821 46.546 46.452" xml:space="preserve"><path fill="#272727" d="M48.939,54.273H13.158c-3.006,0-5.431-2.425-5.431-5.334V13.158c0-3.006,2.424-5.333,5.333-5.333h35.781	c3.007-0.097,5.432,2.327,5.432,5.236v35.781C54.273,51.849,51.849,54.273,48.939,54.273"/><path fill="#85BF25" d="M32.648,44.77c8.242-1.066,13.673-9.115,11.637-17.26c-1.455-5.527-6.207-9.697-11.831-10.279	c-8.437-0.97-15.806,5.915-15.418,14.448c0.388,8.146,7.661,14.157,15.71,13.091H32.648z"/></svg>