<?xml version="1.0" encoding="UTF-8" standalone="no"?>
<?xml-stylesheet type="text/css" href="chrome://nativeshot/skin/icon-toolbar.css" ?>
<svg
   xmlns:dc="http://purl.org/dc/elements/1.1/"
   xmlns:cc="http://creativecommons.org/ns#"
   xmlns:rdf="http://www.w3.org/1999/02/22-rdf-syntax-ns#"
   xmlns:svg="http://www.w3.org/2000/svg"
   xmlns="http://www.w3.org/2000/svg"
   viewBox="0 0 128 128"
   height="128"
   width="128"
   version="1.1"
   id="svg2">
  <metadata
     id="metadata8">
    <rdf:RDF>
      <cc:Work
         rdf:about="">
        <dc:format>image/svg+xml</dc:format>
        <dc:type
           rdf:resource="http://purl.org/dc/dcmitype/StillImage" />
        <dc:title></dc:title>
      </cc:Work>
    </rdf:RDF>
  </metadata>
  <defs
     id="defs6" />
  <path
     d="m 43,95.5 0,15.75 26.25,0 0,-15.75 -26.25,0 z m 52.5,-15.75 0,15.75 -15.75,0 0,15.75 15.75,0 0,15.75 15.75,0 0,-15.75 15.75,0 0,-15.75 -15.75,0 0,-15.75 -15.75,0 z m -94.5,0 0,31.5 15.75,0 15.75,0 0,-15.75 -15.75,0 0,-15.75 -15.75,0 z m 94.5,-35.4375 0,23.625 15.75,0 0,-23.625 -15.75,0 z m -94.5,0 0,23.625 15.75,0 0,-23.625 -15.75,0 z M 79.75,1 l 0,15.75 15.75,0 0,15.75 15.75,0 0,-31.5 -31.5,0 z M 43,1 l 0,15.75 26.25,0 L 69.25,1 43,1 Z M 1,1 1,16.75 1,32.5 l 15.75,0 0,-15.75 15.75,0 L 32.5,1 1,1 Z"
     style="opacity:1;fill-opacity:1;fill-rule:nonzero;stroke:none;stroke-width:1;stroke-linecap:round;stroke-linejoin:round;stroke-miterlimit:4;stroke-dasharray:8, 1;stroke-dashoffset:0"
     id="rect4174" />
</svg>
